<?xml version="1.0" encoding="UTF-8"?><svg xmlns:svg="http://www.w3.org/2000/svg" xmlns="http://www.w3.org/2000/svg" xmlns:xlink="http://www.w3.org/1999/xlink" version="2.0" width="1200" height="2140" ><style >
svg {
  font-family: Helvetica, Arial, sans-serif;
  font-size: 11px;
}
rect {
  stroke-linecap: butt;
  stroke-width: 3;
  stroke: #fff;
/*  stroke-opacity: 1; */
}
rect:hover {
  stroke: #fff;
/*  stroke-opacity: 1; /*
}
polygon { fill: #000; }</style><defs ><polygon id="ahead" points="0 0, -12 4, -12 -4" /><filter id="glow" x="0" y="0" ><feGaussianBlur in="SourceAlpha" stdDeviation="2" result="blurred" /><feFlood flood-color="#fff" /><feComposite operator="in" in2="blurred" /><feComponentTransfer ><feFuncA type="linear" slope="10" intercept="0" /></feComponentTransfer><feMerge ><feMergeNode /><feMergeNode in="SourceGraphic" /></feMerge></filter></defs><g ><text x="60.0" y="20.0" text-anchor="middle" alignment-baseline="middle" fill="#000" >c10</text><text x="60.0" y="1020.0" text-anchor="middle" alignment-baseline="middle" fill="#aaa" >c10</text><text x="180.0" y="20.0" text-anchor="middle" alignment-baseline="middle" fill="#000" >c11</text><text x="180.0" y="1020.0" text-anchor="middle" alignment-baseline="middle" fill="#aaa" >c11</text><text x="300.0" y="20.0" text-anchor="middle" alignment-baseline="middle" fill="#000" >c12</text><text x="300.0" y="1020.0" text-anchor="middle" alignment-baseline="middle" fill="#aaa" >c12</text><text x="420.0" y="20.0" text-anchor="middle" alignment-baseline="middle" fill="#000" >c13</text><text x="420.0" y="1020.0" text-anchor="middle" alignment-baseline="middle" fill="#aaa" >c13</text><text x="540.0" y="20.0" text-anchor="middle" alignment-baseline="middle" fill="#000" >c14</text><text x="540.0" y="1020.0" text-anchor="middle" alignment-baseline="middle" fill="#aaa" >c14</text><text x="660.0" y="20.0" text-anchor="middle" alignment-baseline="middle" fill="#000" >n1</text><text x="660.0" y="1020.0" text-anchor="middle" alignment-baseline="middle" fill="#aaa" >n1</text><text x="780.0" y="20.0" text-anchor="middle" alignment-baseline="middle" fill="#000" >n2</text><text x="780.0" y="1020.0" text-anchor="middle" alignment-baseline="middle" fill="#aaa" >n2</text><text x="900.0" y="20.0" text-anchor="middle" alignment-baseline="middle" fill="#000" >n3</text><text x="900.0" y="1020.0" text-anchor="middle" alignment-baseline="middle" fill="#aaa" >n3</text><text x="1020.0" y="20.0" text-anchor="middle" alignment-baseline="middle" fill="#000" >n4</text><text x="1020.0" y="1020.0" text-anchor="middle" alignment-baseline="middle" fill="#aaa" >n4</text><text x="1140.0" y="20.0" text-anchor="middle" alignment-baseline="middle" fill="#000" >n5</text><text x="1140.0" y="1020.0" text-anchor="middle" alignment-baseline="middle" fill="#aaa" >n5</text></g><g ><line stroke="#ccc" x1="60.0" y1="30.0" x2="60.0" y2="2050.0" /><line stroke="#ccc" x1="180.0" y1="30.0" x2="180.0" y2="2050.0" /><line stroke="#ccc" x1="300.0" y1="30.0" x2="300.0" y2="2050.0" /><line stroke="#ccc" x1="420.0" y1="30.0" x2="420.0" y2="2050.0" /><line stroke="#ccc" x1="540.0" y1="30.0" x2="540.0" y2="2050.0" /><line stroke="#ccc" x1="660.0" y1="30.0" x2="660.0" y2="2050.0" /><line stroke="#ccc" x1="780.0" y1="30.0" x2="780.0" y2="2050.0" /><line stroke="#ccc" x1="900.0" y1="30.0" x2="900.0" y2="2050.0" /><line stroke="#ccc" x1="1020.0" y1="30.0" x2="1020.0" y2="2050.0" /><line stroke="#ccc" x1="1140.0" y1="30.0" x2="1140.0" y2="2050.0" /></g><g ><g transform="translate(60.0 50.0) rotate(1.9091524329963763) " ><rect x="0" y="-2.5" height="5" width="596.3332407921454" fill="#81BFFC" ><title >c10 → n1 {:echo "Please echo 36", :type "echo", :msg_id 1}</title></rect><use xlink:href="#ahead" x="600.3332407921454" y="0" /><text text-anchor="middle" x="300.1666203960727" y="-4" transform="" filter="url(#glow)" style="fill: #fff" >echo {:echo "Please echo 36"}</text><text text-anchor="middle" x="300.1666203960727" y="-4" transform="" >echo {:echo "Please echo 36"}</text></g><g transform="translate(660.0 90.0) rotate(178.0908475670036) " ><rect x="0" y="-2.5" height="5" width="596.3332407921454" fill="#81BFFC" ><title >n1 → c10 {:type "echo_ok", :echo "Please echo 36", :msg_id 2, :in_reply_to 1}</title></rect><use xlink:href="#ahead" x="600.3332407921454" y="0" /><text text-anchor="middle" x="300.1666203960727" y="-4" transform="rotate(180 300.1666203960727 0)" filter="url(#glow)" style="fill: #fff" >echo_ok {:echo "Please echo 36"}</text><text text-anchor="middle" x="300.1666203960727" y="-4" transform="rotate(180 300.1666203960727 0)" >echo_ok {:echo "Please echo 36"}</text></g><g transform="translate(180.0 130.0) rotate(1.193489423982035) " ><rect x="0" y="-2.5" height="5" width="956.2083107326243" fill="#81BFFC" ><title >c11 → n5 {:echo "Please echo 115", :type "echo", :msg_id 1}</title></rect><use xlink:href="#ahead" x="960.2083107326243" y="0" /><text text-anchor="middle" x="480.10415536631217" y="-4" transform="" filter="url(#glow)" style="fill: #fff" >echo {:echo "Please echo 115"}</text><text text-anchor="middle" x="480.10415536631217" y="-4" transform="" >echo {:echo "Please echo 115"}</text></g><g transform="translate(1140.0 170.0) rotate(178.80651057601798) " ><rect x="0" y="-2.5" height="5" width="956.2083107326243" fill="#81BFFC" ><title >n5 → c11 {:type "echo_ok", :echo "Please echo 115", :msg_id 2, :in_reply_to 1}</title></rect><use xlink:href="#ahead" x="960.2083107326243" y="0" /><text text-anchor="middle" x="480.10415536631217" y="-4" transform="rotate(180 480.10415536631217 0)" filter="url(#glow)" style="fill: #fff" >echo_ok {:echo "Please echo 115"}</text><text text-anchor="middle" x="480.10415536631217" y="-4" transform="rotate(180 480.10415536631217 0)" >echo_ok {:echo "Please echo 115"}</text></g><g transform="translate(300.0 210.0) rotate(2.3859440303888126) " ><rect x="0" y="-2.5" height="5" width="476.41648597857255" fill="#81BFFC" ><title >c12 → n2 {:echo "Please echo 20", :type "echo", :msg_id 1}</title></rect><use xlink:href="#ahead" x="480.41648597857255" y="0" /><text text-anchor="middle" x="240.20824298928628" y="-4" transform="" filter="url(#glow)" style="fill: #fff" >echo {:echo "Please echo 20"}</text><text text-anchor="middle" x="240.20824298928628" y="-4" transform="" >echo {:echo "Please echo 20"}</text></g><g transform="translate(780.0 250.0) rotate(177.6140559696112) " ><rect x="0" y="-2.5" height="5" width="476.41648597857255" fill="#81BFFC" ><title >n2 → c12 {:type "echo_ok", :echo "Please echo 20", :msg_id 2, :in_reply_to 1}</title></rect><use xlink:href="#ahead" x="480.41648597857255" y="0" /><text text-anchor="middle" x="240.20824298928628" y="-4" transform="rotate(180 240.20824298928628 0)" filter="url(#glow)" style="fill: #fff" >echo_ok {:echo "Please echo 20"}</text><text text-anchor="middle" x="240.20824298928628" y="-4" transform="rotate(180 240.20824298928628 0)" >echo_ok {:echo "Please echo 20"}</text></g><g transform="translate(420.0 290.0) rotate(1.9091524329963763) " ><rect x="0" y="-2.5" height="5" width="596.3332407921454" fill="#81BFFC" ><title >c13 → n4 {:echo "Please echo 85", :type "echo", :msg_id 1}</title></rect><use xlink:href="#ahead" x="600.3332407921454" y="0" /><text text-anchor="middle" x="300.1666203960727" y="-4" transform="" filter="url(#glow)" style="fill: #fff" >echo {:echo "Please echo 85"}</text><text text-anchor="middle" x="300.1666203960727" y="-4" transform="" >echo {:echo "Please echo 85"}</text></g><g transform="translate(1020.0 330.0) rotate(178.0908475670036) " ><rect x="0" y="-2.5" height="5" width="596.3332407921454" fill="#81BFFC" ><title >n4 → c13 {:type "echo_ok", :echo "Please echo 85", :msg_id 2, :in_reply_to 1}</title></rect><use xlink:href="#ahead" x="600.3332407921454" y="0" /><text text-anchor="middle" x="300.1666203960727" y="-4" transform="rotate(180 300.1666203960727 0)" filter="url(#glow)" style="fill: #fff" >echo_ok {:echo "Please echo 85"}</text><text text-anchor="middle" x="300.1666203960727" y="-4" transform="rotate(180 300.1666203960727 0)" >echo_ok {:echo "Please echo 85"}</text></g><g transform="translate(180.0 370.0) rotate(1.193489423982035) " ><rect x="0" y="-2.5" height="5" width="956.2083107326243" fill="#81BFFC" ><title >c11 → n5 {:echo "Please echo 24", :type "echo", :msg_id 2}</title></rect><use xlink:href="#ahead" x="960.2083107326243" y="0" /><text text-anchor="middle" x="480.10415536631217" y="-4" transform="" filter="url(#glow)" style="fill: #fff" >echo {:echo "Please echo 24"}</text><text text-anchor="middle" x="480.10415536631217" y="-4" transform="" >echo {:echo "Please echo 24"}</text></g><g transform="translate(1140.0 410.0) rotate(178.80651057601798) " ><rect x="0" y="-2.5" height="5" width="956.2083107326243" fill="#81BFFC" ><title >n5 → c11 {:type "echo_ok", :echo "Please echo 24", :msg_id 3, :in_reply_to 2}</title></rect><use xlink:href="#ahead" x="960.2083107326243" y="0" /><text text-anchor="middle" x="480.10415536631217" y="-4" transform="rotate(180 480.10415536631217 0)" filter="url(#glow)" style="fill: #fff" >echo_ok {:echo "Please echo 24"}</text><text text-anchor="middle" x="480.10415536631217" y="-4" transform="rotate(180 480.10415536631217 0)" >echo_ok {:echo "Please echo 24"}</text></g><g transform="translate(300.0 450.0) rotate(2.3859440303888126) " ><rect x="0" y="-2.5" height="5" width="476.41648597857255" fill="#81BFFC" ><title >c12 → n2 {:echo "Please echo 79", :type "echo", :msg_id 2}</title></rect><use xlink:href="#ahead" x="480.41648597857255" y="0" /><text text-anchor="middle" x="240.20824298928628" y="-4" transform="" filter="url(#glow)" style="fill: #fff" >echo {:echo "Please echo 79"}</text><text text-anchor="middle" x="240.20824298928628" y="-4" transform="" >echo {:echo "Please echo 79"}</text></g><g transform="translate(780.0 490.0) rotate(177.6140559696112) " ><rect x="0" y="-2.5" height="5" width="476.41648597857255" fill="#81BFFC" ><title >n2 → c12 {:type "echo_ok", :echo "Please echo 79", :msg_id 3, :in_reply_to 2}</title></rect><use xlink:href="#ahead" x="480.41648597857255" y="0" /><text text-anchor="middle" x="240.20824298928628" y="-4" transform="rotate(180 240.20824298928628 0)" filter="url(#glow)" style="fill: #fff" >echo_ok {:echo "Please echo 79"}</text><text text-anchor="middle" x="240.20824298928628" y="-4" transform="rotate(180 240.20824298928628 0)" >echo_ok {:echo "Please echo 79"}</text></g><g transform="translate(180.0 530.0) rotate(1.193489423982035) " ><rect x="0" y="-2.5" height="5" width="956.2083107326243" fill="#81BFFC" ><title >c11 → n5 {:echo "Please echo 99", :type "echo", :msg_id 3}</title></rect><use xlink:href="#ahead" x="960.2083107326243" y="0" /><text text-anchor="middle" x="480.10415536631217" y="-4" transform="" filter="url(#glow)" style="fill: #fff" >echo {:echo "Please echo 99"}</text><text text-anchor="middle" x="480.10415536631217" y="-4" transform="" >echo {:echo "Please echo 99"}</text></g><g transform="translate(1140.0 570.0) rotate(178.80651057601798) " ><rect x="0" y="-2.5" height="5" width="956.2083107326243" fill="#81BFFC" ><title >n5 → c11 {:type "echo_ok", :echo "Please echo 99", :msg_id 4, :in_reply_to 3}</title></rect><use xlink:href="#ahead" x="960.2083107326243" y="0" /><text text-anchor="middle" x="480.10415536631217" y="-4" transform="rotate(180 480.10415536631217 0)" filter="url(#glow)" style="fill: #fff" >echo_ok {:echo "Please echo 99"}</text><text text-anchor="middle" x="480.10415536631217" y="-4" transform="rotate(180 480.10415536631217 0)" >echo_ok {:echo "Please echo 99"}</text></g><g transform="translate(180.0 610.0) rotate(1.193489423982035) " ><rect x="0" y="-2.5" height="5" width="956.2083107326243" fill="#81BFFC" ><title >c11 → n5 {:echo "Please echo 22", :type "echo", :msg_id 4}</title></rect><use xlink:href="#ahead" x="960.2083107326243" y="0" /><text text-anchor="middle" x="480.10415536631217" y="-4" transform="" filter="url(#glow)" style="fill: #fff" >echo {:echo "Please echo 22"}</text><text text-anchor="middle" x="480.10415536631217" y="-4" transform="" >echo {:echo "Please echo 22"}</text></g><g transform="translate(1140.0 650.0) rotate(178.80651057601798) " ><rect x="0" y="-2.5" height="5" width="956.2083107326243" fill="#81BFFC" ><title >n5 → c11 {:type "echo_ok", :echo "Please echo 22", :msg_id 5, :in_reply_to 4}</title></rect><use xlink:href="#ahead" x="960.2083107326243" y="0" /><text text-anchor="middle" x="480.10415536631217" y="-4" transform="rotate(180 480.10415536631217 0)" filter="url(#glow)" style="fill: #fff" >echo_ok {:echo "Please echo 22"}</text><text text-anchor="middle" x="480.10415536631217" y="-4" transform="rotate(180 480.10415536631217 0)" >echo_ok {:echo "Please echo 22"}</text></g><g transform="translate(180.0 690.0) rotate(1.193489423982035) " ><rect x="0" y="-2.5" height="5" width="956.2083107326243" fill="#81BFFC" ><title >c11 → n5 {:echo "Please echo 121", :type "echo", :msg_id 5}</title></rect><use xlink:href="#ahead" x="960.2083107326243" y="0" /><text text-anchor="middle" x="480.10415536631217" y="-4" transform="" filter="url(#glow)" style="fill: #fff" >echo {:echo "Please echo 121"}</text><text text-anchor="middle" x="480.10415536631217" y="-4" transform="" >echo {:echo "Please echo 121"}</text></g><g transform="translate(1140.0 730.0) rotate(178.80651057601798) " ><rect x="0" y="-2.5" height="5" width="956.2083107326243" fill="#81BFFC" ><title >n5 → c11 {:type "echo_ok", :echo "Please echo 121", :msg_id 6, :in_reply_to 5}</title></rect><use xlink:href="#ahead" x="960.2083107326243" y="0" /><text text-anchor="middle" x="480.10415536631217" y="-4" transform="rotate(180 480.10415536631217 0)" filter="url(#glow)" style="fill: #fff" >echo_ok {:echo "Please echo 121"}</text><text text-anchor="middle" x="480.10415536631217" y="-4" transform="rotate(180 480.10415536631217 0)" >echo_ok {:echo "Please echo 121"}</text></g><g transform="translate(60.0 770.0) rotate(1.9091524329963763) " ><rect x="0" y="-2.5" height="5" width="596.3332407921454" fill="#81BFFC" ><title >c10 → n1 {:echo "Please echo 67", :type "echo", :msg_id 2}</title></rect><use xlink:href="#ahead" x="600.3332407921454" y="0" /><text text-anchor="middle" x="300.1666203960727" y="-4" transform="" filter="url(#glow)" style="fill: #fff" >echo {:echo "Please echo 67"}</text><text text-anchor="middle" x="300.1666203960727" y="-4" transform="" >echo {:echo "Please echo 67"}</text></g><g transform="translate(660.0 810.0) rotate(178.0908475670036) " ><rect x="0" y="-2.5" height="5" width="596.3332407921454" fill="#81BFFC" ><title >n1 → c10 {:type "echo_ok", :echo "Please echo 67", :msg_id 3, :in_reply_to 2}</title></rect><use xlink:href="#ahead" x="600.3332407921454" y="0" /><text text-anchor="middle" x="300.1666203960727" y="-4" transform="rotate(180 300.1666203960727 0)" filter="url(#glow)" style="fill: #fff" >echo_ok {:echo "Please echo 67"}</text><text text-anchor="middle" x="300.1666203960727" y="-4" transform="rotate(180 300.1666203960727 0)" >echo_ok {:echo "Please echo 67"}</text></g><g transform="translate(60.0 850.0) rotate(1.9091524329963763) " ><rect x="0" y="-2.5" height="5" width="596.3332407921454" fill="#81BFFC" ><title >c10 → n1 {:echo "Please echo 99", :type "echo", :msg_id 3}</title></rect><use xlink:href="#ahead" x="600.3332407921454" y="0" /><text text-anchor="middle" x="300.1666203960727" y="-4" transform="" filter="url(#glow)" style="fill: #fff" >echo {:echo "Please echo 99"}</text><text text-anchor="middle" x="300.1666203960727" y="-4" transform="" >echo {:echo "Please echo 99"}</text></g><g transform="translate(660.0 890.0) rotate(178.0908475670036) " ><rect x="0" y="-2.5" height="5" width="596.3332407921454" fill="#81BFFC" ><title >n1 → c10 {:type "echo_ok", :echo "Please echo 99", :msg_id 4, :in_reply_to 3}</title></rect><use xlink:href="#ahead" x="600.3332407921454" y="0" /><text text-anchor="middle" x="300.1666203960727" y="-4" transform="rotate(180 300.1666203960727 0)" filter="url(#glow)" style="fill: #fff" >echo_ok {:echo "Please echo 99"}</text><text text-anchor="middle" x="300.1666203960727" y="-4" transform="rotate(180 300.1666203960727 0)" >echo_ok {:echo "Please echo 99"}</text></g><g transform="translate(300.0 930.0) rotate(2.3859440303888126) " ><rect x="0" y="-2.5" height="5" width="476.41648597857255" fill="#81BFFC" ><title >c12 → n2 {:echo "Please echo 89", :type "echo", :msg_id 3}</title></rect><use xlink:href="#ahead" x="480.41648597857255" y="0" /><text text-anchor="middle" x="240.20824298928628" y="-4" transform="" filter="url(#glow)" style="fill: #fff" >echo {:echo "Please echo 89"}</text><text text-anchor="middle" x="240.20824298928628" y="-4" transform="" >echo {:echo "Please echo 89"}</text></g><g transform="translate(780.0 970.0) rotate(177.6140559696112) " ><rect x="0" y="-2.5" height="5" width="476.41648597857255" fill="#81BFFC" ><title >n2 → c12 {:type "echo_ok", :echo "Please echo 89", :msg_id 4, :in_reply_to 3}</title></rect><use xlink:href="#ahead" x="480.41648597857255" y="0" /><text text-anchor="middle" x="240.20824298928628" y="-4" transform="rotate(180 240.20824298928628 0)" filter="url(#glow)" style="fill: #fff" >echo_ok {:echo "Please echo 89"}</text><text text-anchor="middle" x="240.20824298928628" y="-4" transform="rotate(180 240.20824298928628 0)" >echo_ok {:echo "Please echo 89"}</text></g><g transform="translate(420.0 1010.0) rotate(1.9091524329963763) " ><rect x="0" y="-2.5" height="5" width="596.3332407921454" fill="#81BFFC" ><title >c13 → n4 {:echo "Please echo 30", :type "echo", :msg_id 2}</title></rect><use xlink:href="#ahead" x="600.3332407921454" y="0" /><text text-anchor="middle" x="300.1666203960727" y="-4" transform="" filter="url(#glow)" style="fill: #fff" >echo {:echo "Please echo 30"}</text><text text-anchor="middle" x="300.1666203960727" y="-4" transform="" >echo {:echo "Please echo 30"}</text></g><g transform="translate(1020.0 1050.0) rotate(178.0908475670036) " ><rect x="0" y="-2.5" height="5" width="596.3332407921454" fill="#81BFFC" ><title >n4 → c13 {:type "echo_ok", :echo "Please echo 30", :msg_id 3, :in_reply_to 2}</title></rect><use xlink:href="#ahead" x="600.3332407921454" y="0" /><text text-anchor="middle" x="300.1666203960727" y="-4" transform="rotate(180 300.1666203960727 0)" filter="url(#glow)" style="fill: #fff" >echo_ok {:echo "Please echo 30"}</text><text text-anchor="middle" x="300.1666203960727" y="-4" transform="rotate(180 300.1666203960727 0)" >echo_ok {:echo "Please echo 30"}</text></g><g transform="translate(420.0 1090.0) rotate(1.9091524329963763) " ><rect x="0" y="-2.5" height="5" width="596.3332407921454" fill="#81BFFC" ><title >c13 → n4 {:echo "Please echo 13", :type "echo", :msg_id 3}</title></rect><use xlink:href="#ahead" x="600.3332407921454" y="0" /><text text-anchor="middle" x="300.1666203960727" y="-4" transform="" filter="url(#glow)" style="fill: #fff" >echo {:echo "Please echo 13"}</text><text text-anchor="middle" x="300.1666203960727" y="-4" transform="" >echo {:echo "Please echo 13"}</text></g><g transform="translate(1020.0 1130.0) rotate(178.0908475670036) " ><rect x="0" y="-2.5" height="5" width="596.3332407921454" fill="#81BFFC" ><title >n4 → c13 {:type "echo_ok", :echo "Please echo 13", :msg_id 4, :in_reply_to 3}</title></rect><use xlink:href="#ahead" x="600.3332407921454" y="0" /><text text-anchor="middle" x="300.1666203960727" y="-4" transform="rotate(180 300.1666203960727 0)" filter="url(#glow)" style="fill: #fff" >echo_ok {:echo "Please echo 13"}</text><text text-anchor="middle" x="300.1666203960727" y="-4" transform="rotate(180 300.1666203960727 0)" >echo_ok {:echo "Please echo 13"}</text></g><g transform="translate(300.0 1170.0) rotate(2.3859440303888126) " ><rect x="0" y="-2.5" height="5" width="476.41648597857255" fill="#81BFFC" ><title >c12 → n2 {:echo "Please echo 4", :type "echo", :msg_id 4}</title></rect><use xlink:href="#ahead" x="480.41648597857255" y="0" /><text text-anchor="middle" x="240.20824298928628" y="-4" transform="" filter="url(#glow)" style="fill: #fff" >echo {:echo "Please echo 4"}</text><text text-anchor="middle" x="240.20824298928628" y="-4" transform="" >echo {:echo "Please echo 4"}</text></g><g transform="translate(780.0 1210.0) rotate(177.6140559696112) " ><rect x="0" y="-2.5" height="5" width="476.41648597857255" fill="#81BFFC" ><title >n2 → c12 {:type "echo_ok", :echo "Please echo 4", :msg_id 5, :in_reply_to 4}</title></rect><use xlink:href="#ahead" x="480.41648597857255" y="0" /><text text-anchor="middle" x="240.20824298928628" y="-4" transform="rotate(180 240.20824298928628 0)" filter="url(#glow)" style="fill: #fff" >echo_ok {:echo "Please echo 4"}</text><text text-anchor="middle" x="240.20824298928628" y="-4" transform="rotate(180 240.20824298928628 0)" >echo_ok {:echo "Please echo 4"}</text></g><g transform="translate(60.0 1250.0) rotate(1.9091524329963763) " ><rect x="0" y="-2.5" height="5" width="596.3332407921454" fill="#81BFFC" ><title >c10 → n1 {:echo "Please echo 97", :type "echo", :msg_id 4}</title></rect><use xlink:href="#ahead" x="600.3332407921454" y="0" /><text text-anchor="middle" x="300.1666203960727" y="-4" transform="" filter="url(#glow)" style="fill: #fff" >echo {:echo "Please echo 97"}</text><text text-anchor="middle" x="300.1666203960727" y="-4" transform="" >echo {:echo "Please echo 97"}</text></g><g transform="translate(660.0 1290.0) rotate(178.0908475670036) " ><rect x="0" y="-2.5" height="5" width="596.3332407921454" fill="#81BFFC" ><title >n1 → c10 {:type "echo_ok", :echo "Please echo 97", :msg_id 5, :in_reply_to 4}</title></rect><use xlink:href="#ahead" x="600.3332407921454" y="0" /><text text-anchor="middle" x="300.1666203960727" y="-4" transform="rotate(180 300.1666203960727 0)" filter="url(#glow)" style="fill: #fff" >echo_ok {:echo "Please echo 97"}</text><text text-anchor="middle" x="300.1666203960727" y="-4" transform="rotate(180 300.1666203960727 0)" >echo_ok {:echo "Please echo 97"}</text></g><g transform="translate(300.0 1330.0) rotate(2.3859440303888126) " ><rect x="0" y="-2.5" height="5" width="476.41648597857255" fill="#81BFFC" ><title >c12 → n2 {:echo "Please echo 74", :type "echo", :msg_id 5}</title></rect><use xlink:href="#ahead" x="480.41648597857255" y="0" /><text text-anchor="middle" x="240.20824298928628" y="-4" transform="" filter="url(#glow)" style="fill: #fff" >echo {:echo "Please echo 74"}</text><text text-anchor="middle" x="240.20824298928628" y="-4" transform="" >echo {:echo "Please echo 74"}</text></g><g transform="translate(780.0 1370.0) rotate(177.6140559696112) " ><rect x="0" y="-2.5" height="5" width="476.41648597857255" fill="#81BFFC" ><title >n2 → c12 {:type "echo_ok", :echo "Please echo 74", :msg_id 6, :in_reply_to 5}</title></rect><use xlink:href="#ahead" x="480.41648597857255" y="0" /><text text-anchor="middle" x="240.20824298928628" y="-4" transform="rotate(180 240.20824298928628 0)" filter="url(#glow)" style="fill: #fff" >echo_ok {:echo "Please echo 74"}</text><text text-anchor="middle" x="240.20824298928628" y="-4" transform="rotate(180 240.20824298928628 0)" >echo_ok {:echo "Please echo 74"}</text></g><g transform="translate(180.0 1410.0) rotate(1.193489423982035) " ><rect x="0" y="-2.5" height="5" width="956.2083107326243" fill="#81BFFC" ><title >c11 → n5 {:echo "Please echo 21", :type "echo", :msg_id 6}</title></rect><use xlink:href="#ahead" x="960.2083107326243" y="0" /><text text-anchor="middle" x="480.10415536631217" y="-4" transform="" filter="url(#glow)" style="fill: #fff" >echo {:echo "Please echo 21"}</text><text text-anchor="middle" x="480.10415536631217" y="-4" transform="" >echo {:echo "Please echo 21"}</text></g><g transform="translate(1140.0 1450.0) rotate(178.80651057601798) " ><rect x="0" y="-2.5" height="5" width="956.2083107326243" fill="#81BFFC" ><title >n5 → c11 {:type "echo_ok", :echo "Please echo 21", :msg_id 7, :in_reply_to 6}</title></rect><use xlink:href="#ahead" x="960.2083107326243" y="0" /><text text-anchor="middle" x="480.10415536631217" y="-4" transform="rotate(180 480.10415536631217 0)" filter="url(#glow)" style="fill: #fff" >echo_ok {:echo "Please echo 21"}</text><text text-anchor="middle" x="480.10415536631217" y="-4" transform="rotate(180 480.10415536631217 0)" >echo_ok {:echo "Please echo 21"}</text></g><g transform="translate(540.0 1490.0) rotate(3.179830119864234) " ><rect x="0" y="-2.5" height="5" width="356.5551275463989" fill="#81BFFC" ><title >c14 → n3 {:echo "Please echo 60", :type "echo", :msg_id 1}</title></rect><use xlink:href="#ahead" x="360.5551275463989" y="0" /><text text-anchor="middle" x="180.27756377319946" y="-4" transform="" filter="url(#glow)" style="fill: #fff" >echo {:echo "Please echo 60"}</text><text text-anchor="middle" x="180.27756377319946" y="-4" transform="" >echo {:echo "Please echo 60"}</text></g><g transform="translate(900.0 1530.0) rotate(176.82016988013578) " ><rect x="0" y="-2.5" height="5" width="356.5551275463989" fill="#81BFFC" ><title >n3 → c14 {:type "echo_ok", :echo "Please echo 60", :msg_id 2, :in_reply_to 1}</title></rect><use xlink:href="#ahead" x="360.5551275463989" y="0" /><text text-anchor="middle" x="180.27756377319946" y="-4" transform="rotate(180 180.27756377319946 0)" filter="url(#glow)" style="fill: #fff" >echo_ok {:echo "Please echo 60"}</text><text text-anchor="middle" x="180.27756377319946" y="-4" transform="rotate(180 180.27756377319946 0)" >echo_ok {:echo "Please echo 60"}</text></g><g transform="translate(300.0 1570.0) rotate(2.3859440303888126) " ><rect x="0" y="-2.5" height="5" width="476.41648597857255" fill="#81BFFC" ><title >c12 → n2 {:echo "Please echo 7", :type "echo", :msg_id 6}</title></rect><use xlink:href="#ahead" x="480.41648597857255" y="0" /><text text-anchor="middle" x="240.20824298928628" y="-4" transform="" filter="url(#glow)" style="fill: #fff" >echo {:echo "Please echo 7"}</text><text text-anchor="middle" x="240.20824298928628" y="-4" transform="" >echo {:echo "Please echo 7"}</text></g><g transform="translate(780.0 1610.0) rotate(177.6140559696112) " ><rect x="0" y="-2.5" height="5" width="476.41648597857255" fill="#81BFFC" ><title >n2 → c12 {:type "echo_ok", :echo "Please echo 7", :msg_id 7, :in_reply_to 6}</title></rect><use xlink:href="#ahead" x="480.41648597857255" y="0" /><text text-anchor="middle" x="240.20824298928628" y="-4" transform="rotate(180 240.20824298928628 0)" filter="url(#glow)" style="fill: #fff" >echo_ok {:echo "Please echo 7"}</text><text text-anchor="middle" x="240.20824298928628" y="-4" transform="rotate(180 240.20824298928628 0)" >echo_ok {:echo "Please echo 7"}</text></g><g transform="translate(60.0 1650.0) rotate(1.9091524329963763) " ><rect x="0" y="-2.5" height="5" width="596.3332407921454" fill="#81BFFC" ><title >c10 → n1 {:echo "Please echo 119", :type "echo", :msg_id 5}</title></rect><use xlink:href="#ahead" x="600.3332407921454" y="0" /><text text-anchor="middle" x="300.1666203960727" y="-4" transform="" filter="url(#glow)" style="fill: #fff" >echo {:echo "Please echo 119"}</text><text text-anchor="middle" x="300.1666203960727" y="-4" transform="" >echo {:echo "Please echo 119"}</text></g><g transform="translate(660.0 1690.0) rotate(178.0908475670036) " ><rect x="0" y="-2.5" height="5" width="596.3332407921454" fill="#81BFFC" ><title >n1 → c10 {:type "echo_ok", :echo "Please echo 119", :msg_id 6, :in_reply_to 5}</title></rect><use xlink:href="#ahead" x="600.3332407921454" y="0" /><text text-anchor="middle" x="300.1666203960727" y="-4" transform="rotate(180 300.1666203960727 0)" filter="url(#glow)" style="fill: #fff" >echo_ok {:echo "Please echo 119"}</text><text text-anchor="middle" x="300.1666203960727" y="-4" transform="rotate(180 300.1666203960727 0)" >echo_ok {:echo "Please echo 119"}</text></g><g transform="translate(540.0 1730.0) rotate(3.179830119864234) " ><rect x="0" y="-2.5" height="5" width="356.5551275463989" fill="#81BFFC" ><title >c14 → n3 {:echo "Please echo 22", :type "echo", :msg_id 2}</title></rect><use xlink:href="#ahead" x="360.5551275463989" y="0" /><text text-anchor="middle" x="180.27756377319946" y="-4" transform="" filter="url(#glow)" style="fill: #fff" >echo {:echo "Please echo 22"}</text><text text-anchor="middle" x="180.27756377319946" y="-4" transform="" >echo {:echo "Please echo 22"}</text></g><g transform="translate(900.0 1770.0) rotate(176.82016988013578) " ><rect x="0" y="-2.5" height="5" width="356.5551275463989" fill="#81BFFC" ><title >n3 → c14 {:type "echo_ok", :echo "Please echo 22", :msg_id 3, :in_reply_to 2}</title></rect><use xlink:href="#ahead" x="360.5551275463989" y="0" /><text text-anchor="middle" x="180.27756377319946" y="-4" transform="rotate(180 180.27756377319946 0)" filter="url(#glow)" style="fill: #fff" >echo_ok {:echo "Please echo 22"}</text><text text-anchor="middle" x="180.27756377319946" y="-4" transform="rotate(180 180.27756377319946 0)" >echo_ok {:echo "Please echo 22"}</text></g><g transform="translate(540.0 1810.0) rotate(3.179830119864234) " ><rect x="0" y="-2.5" height="5" width="356.5551275463989" fill="#81BFFC" ><title >c14 → n3 {:echo "Please echo 126", :type "echo", :msg_id 3}</title></rect><use xlink:href="#ahead" x="360.5551275463989" y="0" /><text text-anchor="middle" x="180.27756377319946" y="-4" transform="" filter="url(#glow)" style="fill: #fff" >echo {:echo "Please echo 126"}</text><text text-anchor="middle" x="180.27756377319946" y="-4" transform="" >echo {:echo "Please echo 126"}</text></g><g transform="translate(900.0 1850.0) rotate(176.82016988013578) " ><rect x="0" y="-2.5" height="5" width="356.5551275463989" fill="#81BFFC" ><title >n3 → c14 {:type "echo_ok", :echo "Please echo 126", :msg_id 4, :in_reply_to 3}</title></rect><use xlink:href="#ahead" x="360.5551275463989" y="0" /><text text-anchor="middle" x="180.27756377319946" y="-4" transform="rotate(180 180.27756377319946 0)" filter="url(#glow)" style="fill: #fff" >echo_ok {:echo "Please echo 126"}</text><text text-anchor="middle" x="180.27756377319946" y="-4" transform="rotate(180 180.27756377319946 0)" >echo_ok {:echo "Please echo 126"}</text></g><g transform="translate(540.0 1890.0) rotate(3.179830119864234) " ><rect x="0" y="-2.5" height="5" width="356.5551275463989" fill="#81BFFC" ><title >c14 → n3 {:echo "Please echo 108", :type "echo", :msg_id 4}</title></rect><use xlink:href="#ahead" x="360.5551275463989" y="0" /><text text-anchor="middle" x="180.27756377319946" y="-4" transform="" filter="url(#glow)" style="fill: #fff" >echo {:echo "Please echo 108"}</text><text text-anchor="middle" x="180.27756377319946" y="-4" transform="" >echo {:echo "Please echo 108"}</text></g><g transform="translate(900.0 1930.0) rotate(176.82016988013578) " ><rect x="0" y="-2.5" height="5" width="356.5551275463989" fill="#81BFFC" ><title >n3 → c14 {:type "echo_ok", :echo "Please echo 108", :msg_id 5, :in_reply_to 4}</title></rect><use xlink:href="#ahead" x="360.5551275463989" y="0" /><text text-anchor="middle" x="180.27756377319946" y="-4" transform="rotate(180 180.27756377319946 0)" filter="url(#glow)" style="fill: #fff" >echo_ok {:echo "Please echo 108"}</text><text text-anchor="middle" x="180.27756377319946" y="-4" transform="rotate(180 180.27756377319946 0)" >echo_ok {:echo "Please echo 108"}</text></g><g transform="translate(540.0 1970.0) rotate(3.179830119864234) " ><rect x="0" y="-2.5" height="5" width="356.5551275463989" fill="#81BFFC" ><title >c14 → n3 {:echo "Please echo 59", :type "echo", :msg_id 5}</title></rect><use xlink:href="#ahead" x="360.5551275463989" y="0" /><text text-anchor="middle" x="180.27756377319946" y="-4" transform="" filter="url(#glow)" style="fill: #fff" >echo {:echo "Please echo 59"}</text><text text-anchor="middle" x="180.27756377319946" y="-4" transform="" >echo {:echo "Please echo 59"}</text></g><g transform="translate(900.0 2010.0) rotate(176.82016988013578) " ><rect x="0" y="-2.5" height="5" width="356.5551275463989" fill="#81BFFC" ><title >n3 → c14 {:type "echo_ok", :echo "Please echo 59", :msg_id 6, :in_reply_to 5}</title></rect><use xlink:href="#ahead" x="360.5551275463989" y="0" /><text text-anchor="middle" x="180.27756377319946" y="-4" transform="rotate(180 180.27756377319946 0)" filter="url(#glow)" style="fill: #fff" >echo_ok {:echo "Please echo 59"}</text><text text-anchor="middle" x="180.27756377319946" y="-4" transform="rotate(180 180.27756377319946 0)" >echo_ok {:echo "Please echo 59"}</text></g></g></svg>